<svg xmlns="http://www.w3.org/2000/svg" viewBox="0 0 32 32" fill="none">
  <rect width="32" height="32" rx="7" fill="#6366f1"/>
  <path d="M9.5 7.5h9l5 5V25a1.5 1.5 0 0 1-1.5 1.5h-12A1.5 1.5 0 0 1 8.5 25V9A1.5 1.5 0 0 1 10 7.5z" fill="white" fill-opacity="0.12"/>
  <path d="M10 7h8.5l5.5 5.5V25a2 2 0 0 1-2 2H10a2 2 0 0 1-2-2V9a2 2 0 0 1 2-2z" fill="white"/>
  <path d="M18.5 7v4a1.5 1.5 0 0 0 1.5 1.5h4" fill="#eef2ff"/>
  <rect x="11" y="15.5" width="9" height="1.2" rx="0.6" fill="#6366f1" opacity="0.45"/>
  <rect x="11" y="18.5" width="6.5" height="1.2" rx="0.6" fill="#6366f1" opacity="0.3"/>
  <rect x="11" y="21.5" width="7.5" height="1.2" rx="0.6" fill="#6366f1" opacity="0.18"/>
  <circle cx="25" cy="7" r="5" fill="#818cf8"/>
  <path d="M23 7l1 1 2-2" stroke="white" stroke-width="1.3" stroke-linecap="round" stroke-linejoin="round" fill="none"/>
</svg>
